<svg width="31" height="31" viewBox="0 0 31 31" fill="none" xmlns="http://www.w3.org/2000/svg">
<g clip-path="url(#clip0_21_22)">
<path d="M15.5151 0.484863C18.4848 0.484863 21.3879 1.36549 23.8571 3.01537C26.3263 4.66525 28.2508 7.0103 29.3873 9.75395C30.5238 12.4976 30.8211 15.5167 30.2418 18.4293C29.6624 21.342 28.2323 24.0174 26.1324 26.1173C24.0325 28.2172 21.3571 29.6473 18.4444 30.2266C15.5318 30.806 12.5127 30.5086 9.76909 29.3722C7.02543 28.2357 4.68039 26.3112 3.03051 23.842C1.38062 21.3727 0.5 18.4697 0.5 15.5C0.5 11.5177 2.08195 7.69858 4.89783 4.88269C7.71372 2.06681 11.5329 0.484863 15.5151 0.484863Z" fill="white" stroke="#6F1C9C"/>
<path d="M15.6872 10.0028V8.04699C15.7087 7.96382 15.7363 7.92715 15.749 7.91372C15.7605 7.90149 15.7754 7.89082 15.81 7.88531C15.9003 7.87091 16.1018 7.90285 16.3768 8.0914C16.9091 8.45641 17.4654 9.24515 17.5361 10.2675C17.5692 11.0644 17.5039 11.8624 17.3415 12.6433L17.2164 13.2451H17.8311H21.254C21.8666 13.2723 22.3738 13.5046 22.6351 13.8297C22.8657 14.1166 22.9803 14.5702 22.613 15.2702L22.5212 15.4451L22.5738 15.6355C22.6653 15.9672 22.7088 16.2986 22.6819 16.5637C22.655 16.8296 22.5687 16.9517 22.4779 17.0084L22.2263 17.1657L22.2438 17.4619C22.3042 18.4835 22.0285 19.0506 21.5493 19.5036L21.3974 19.6471L21.3929 19.8561C21.3836 20.2868 21.2576 20.7067 21.0286 21.0713C20.8591 21.3071 20.7559 21.3394 20.6712 21.355C20.6037 21.3675 20.5175 21.3711 20.38 21.3677C20.342 21.3668 20.2976 21.3652 20.2486 21.3634C20.1407 21.3596 20.0111 21.3549 19.8821 21.3549H14.0797C13.6661 21.3549 13.3965 21.2979 13.1753 21.1871C12.9813 21.0899 12.7893 20.9337 12.5614 20.6668V14.7373C13.4267 14.3786 14.0655 13.6361 14.5327 12.8573C15.0702 11.9614 15.4299 10.9358 15.6662 10.1462L15.6872 10.076V10.0028ZM8.16446 13.9845C8.17412 13.9749 8.18716 13.9694 8.2008 13.9691H10.8614C10.8744 13.9693 10.8868 13.9746 10.896 13.9839L11.2504 13.6311L10.896 13.9839C10.9053 13.9932 10.9106 14.0059 10.9106 14.0191V21.3208C10.9104 21.3345 10.9049 21.3475 10.8953 21.3571C10.8858 21.3666 10.873 21.3722 10.8596 21.3725H8.20083C8.18718 21.3724 8.17413 21.3668 8.16446 21.3572C8.1548 21.3475 8.1493 21.3345 8.14909 21.3208V14.0209C8.1493 14.0072 8.1548 13.9942 8.16446 13.9845Z" fill="#6F1C9C" stroke="#6F1C9C"/>
</g>
<rect x="0.5" y="0.5" width="30" height="30" rx="15" stroke="#6F1C9C"/>
<defs>
<clipPath id="clip0_21_22">
<rect width="31" height="31" rx="15.5" fill="white"/>
</clipPath>
</defs>
</svg>
