<svg width="12" height="11" viewBox="0 0 12 11" fill="none" xmlns="http://www.w3.org/2000/svg">
<g clip-path="url(#clip0_28_542)">
<path d="M5.8148 1.26042H7.60744C7.65445 1.26042 7.69953 1.27928 7.73276 1.31286C7.766 1.34643 7.78467 1.39197 7.78467 1.43945V8.55436C7.78467 8.60185 7.766 8.64738 7.73276 8.68096C7.69953 8.71454 7.65445 8.7334 7.60744 8.7334H5.8148C5.7678 8.7334 5.72272 8.71454 5.68948 8.68096C5.65624 8.64738 5.63757 8.60185 5.63757 8.55436V1.43229C5.63757 1.38481 5.65624 1.33927 5.68948 1.30569C5.72272 1.27212 5.7678 1.25326 5.8148 1.25326V1.26042ZM12 11H0.879929C0.764617 11.0005 0.650347 10.9779 0.543667 10.9337C0.436988 10.8895 0.339997 10.8244 0.258253 10.7423C0.176509 10.6601 0.111619 10.5625 0.067303 10.4549C0.0229869 10.3474 0.000115652 10.2321 0 10.1156L0 0H1.1245V9.86401H12V11ZM9.13159 4.81608H10.9242C10.9712 4.81608 11.0163 4.83494 11.0496 4.86852C11.0828 4.9021 11.1015 4.94763 11.1015 4.99512V8.55436C11.1015 8.60185 11.0828 8.64738 11.0496 8.68096C11.0163 8.71454 10.9712 8.7334 10.9242 8.7334H9.13159C9.08459 8.7334 9.03951 8.71454 9.00627 8.68096C8.97304 8.64738 8.95436 8.60185 8.95436 8.55436V4.99064C8.95436 4.94316 8.97304 4.89762 9.00627 4.86404C9.03951 4.83047 9.08459 4.8116 9.13159 4.8116V4.81608ZM2.49801 2.63542H4.29065C4.33613 2.63655 4.37943 2.65531 4.41159 2.6878C4.44376 2.72029 4.46232 2.76404 4.46345 2.80998V8.55436C4.46346 8.60108 4.4454 8.64595 4.41312 8.6794C4.38083 8.71285 4.33688 8.73223 4.29065 8.7334H2.49801C2.451 8.7334 2.40592 8.71454 2.37269 8.68096C2.33945 8.64738 2.32078 8.60185 2.32078 8.55436V2.80998C2.32194 2.76327 2.34112 2.71888 2.37423 2.68626C2.40734 2.65365 2.45176 2.6354 2.49801 2.63542Z" fill="white"/>
</g>
<defs>
<clipPath id="clip0_28_542">
<rect width="12" height="11" fill="white"/>
</clipPath>
</defs>
</svg>
